<svg xmlns="http://www.w3.org/2000/svg" xmlns:xlink="http://www.w3.org/1999/xlink" id="Layer_1" x="0" y="0" version="1.1" viewBox="0 0 100 100" xml:space="preserve" style="enable-background:new 0 0 100 100"><style type="text/css">.st0{fill:#a6cc46}.st1{fill:#a3238e}.st2{fill:#faa74a}.st3{fill:#2e3192}.st4{fill:#a6ce39}</style><g><polygon points="13.9 15.3 30.5 15.3 23.4 22.6 45.2 44.4 45.2 46.1 43.4 46.1 21.5 24.3 13.9 31.9" class="st0"/><polygon points="68.9 15.3 85 15.3 85 31.4 77.7 24.1 55.6 46.1 53.9 46.1 53.9 44.4 76 22.2" class="st1"/><polygon points="53.9 54.7 55.6 54.7 77.6 76.7 85 69.1 85 85.7 68.4 85.7 75.7 78.4 53.9 56.6" class="st2"/><polygon points="43.4 54.7 45.2 54.7 45.2 56.6 23.1 78.6 30 85.7 13.9 85.7 13.9 69.6 21.4 76.9" class="st3"/><polygon points="13.9 36.3 21.5 28.7 39 46.1 13.9 46.1" class="st4"/><polygon points="39 54.7 21.4 72.5 13.9 65.2 13.9 54.7" class="st3"/><polygon points="-.5 50.7 10.9 39.3 10.9 49.1 42.2 49.1 43.4 50.5 42.2 51.7 10.9 51.7 10.9 62" class="st1"/><polygon points="60 46.1 77.7 28.3 85 35.8 85 46.1" class="st1"/><polygon points="85 64.7 77.6 72.3 60 54.7 85 54.7" class="st2"/><polygon points="55.7 50.5 56.9 49.1 88.2 49.1 88.2 38.8 99.6 50.2 88.2 61.5 88.2 51.7 56.9 51.7" class="st3"/><polygon points="53.9 61 71.3 78.4 64.2 85.7 53.9 85.7" class="st2"/><polygon points="48.3 57.8 49.5 56.6 50.8 57.8 50.8 88.7 61 88.7 49.3 100.4 37.6 88.7 48.3 88.7" class="st4"/><polygon points="27.5 78.6 45.2 61 45.2 85.7 34.4 85.7" class="st3"/><polygon points="53.9 40 71.3 22.6 64.2 15.5 53.9 15.5" class="st1"/><polygon points="48.3 43.2 49.5 44.4 50.8 43.2 50.8 12.3 61 12.3 49.3 .6 37.6 12.3 48.3 12.3" class="st2"/><polygon points="27.5 22.4 45.2 40 45.2 15.5 34.4 15.5" class="st4"/></g></svg>